<?xml version="1.0" encoding="UTF-8" standalone="no"?>
<!-- Creator: CorelDRAW X6 -->

<svg
   xmlns:dc="http://purl.org/dc/elements/1.1/"
   xmlns:cc="http://creativecommons.org/ns#"
   xmlns:rdf="http://www.w3.org/1999/02/22-rdf-syntax-ns#"
   xmlns:svg="http://www.w3.org/2000/svg"
   xmlns="http://www.w3.org/2000/svg"
   xmlns:sodipodi="http://sodipodi.sourceforge.net/DTD/sodipodi-0.dtd"
   xmlns:inkscape="http://www.inkscape.org/namespaces/inkscape"
   xml:space="preserve"
   width="4.55555in"
   height="2.875in"
   version="1.1"
   style="shape-rendering:geometricPrecision; text-rendering:geometricPrecision; image-rendering:optimizeQuality; fill-rule:evenodd; clip-rule:evenodd"
   viewBox="0 0 4556 2875"
   id="svg3747"
   sodipodi:docname="goldcorp_logo1.svg"
   inkscape:version="0.92.4 (5da689c313, 2019-01-14)"><metadata
   id="metadata3751"><rdf:RDF><cc:Work
       rdf:about=""><dc:format>image/svg+xml</dc:format><dc:type
         rdf:resource="http://purl.org/dc/dcmitype/StillImage" /></cc:Work></rdf:RDF></metadata><sodipodi:namedview
   pagecolor="#ffffff"
   bordercolor="#666666"
   borderopacity="1"
   objecttolerance="10"
   gridtolerance="10"
   guidetolerance="10"
   inkscape:pageopacity="0"
   inkscape:pageshadow="2"
   inkscape:window-width="1366"
   inkscape:window-height="705"
   id="namedview3749"
   showgrid="false"
   inkscape:zoom="1.9492754"
   inkscape:cx="218.6664"
   inkscape:cy="138"
   inkscape:window-x="-4"
   inkscape:window-y="-4"
   inkscape:window-maximized="1"
   inkscape:current-layer="Layer_x0020_1" />
 <defs
   id="defs3735">
  <style
   type="text/css"
   id="style3733">
   <![CDATA[
    .fil0 {fill:#214686;fill-rule:nonzero}
    .fil2 {fill:#416E87;fill-rule:nonzero}
    .fil1 {fill:#C59824;fill-rule:nonzero}
   ]]>
  </style>
 </defs>
 <g
   id="Layer_x0020_1">
  <metadata
   id="CorelCorpID_0Corel-Layer" />
  <path
   class="fil0"
   d="M4197 2228l26 0 24 61 23 -61 26 0 0 90 -16 0 0 -69 0 0 -25 69 -13 0 -25 -69 0 0 0 69 -16 0 0 -90zm-65 15l-28 0 0 -15 72 0 0 15 -28 0 0 75 -16 0 0 -75z"
   id="path3738" />
  <polygon
   class="fil1"
   points="3684,231 4482,231 4152,-4 "
   id="polygon3740" />
  <path
   class="fil0"
   d="M4111 1118l-19 83c0,0 147,0 150,0 -1,4 -93,417 -93,417l117 0c0,0 93,-414 93,-417 2,0 150,0 150,0l19 -83 -418 0zm453 -829l0 0 -82 -58 -798 0 -1440 722 -14 62c218,-102 1344,-615 2125,-713 89,-11 156,-11 206,1l3 -14zm-3949 829c0,0 -74,330 -76,339 -4,-8 -152,-339 -152,-339l-118 0 -112 500 89 0c0,0 78,-349 80,-359 8,16 167,359 167,359l99 0 112 -500 -89 0zm245 0l-112 500 375 0 19 -83c0,0 -262,0 -266,0 1,-4 29,-129 29,-131 2,0 211,0 211,0l18 -79c0,0 -207,0 -211,0 1,-4 28,-124 28,-126 2,0 262,0 262,0l18 -81 -372 0zm3023 0c0,0 -74,330 -76,339 -4,-8 -152,-339 -152,-339l-118 0 -112 500 89 0c0,0 78,-349 80,-359 8,16 167,359 167,359l99 0 112 -500 -89 0zm-658 248c-16,71 -36,103 -53,125 -20,26 -63,55 -116,55 -33,0 -57,-10 -73,-29 -23,-29 -27,-80 -12,-147 27,-120 83,-180 168,-180 46,0 75,17 86,51 14,42 6,96 -1,125zm-68 -255c-169,0 -275,132 -303,255 -8,37 -22,131 32,198 33,41 85,62 154,62 147,0 269,-103 303,-257 17,-78 6,-147 -31,-194 -33,-42 -87,-64 -154,-64zm-737 318c-1,-8 -46,-310 -46,-310l-166 0 -112 500 91 0c0,0 89,-398 93,-414 2,16 58,414 58,414l59 0c0,0 233,-396 243,-413 -4,18 -92,413 -92,413l112 0 112 -500 -167 0c0,0 -180,303 -184,310zm-617 40c-1,-10 -32,-350 -32,-350l-108 0c0,0 -173,340 -177,350 -1,-11 -28,-350 -28,-350l-116 0 45 500 111 0c0,0 173,-343 178,-352 1,11 31,352 31,352l113 0 265 -500 -98 0c0,0 -178,341 -183,350zm-72 771l48 0c148,0 216,-85 216,-222 0,-78 -62,-120 -155,-120l-32 0 -77 342zm-8 -421l150 0c107,0 229,40 229,213 0,116 -60,286 -318,286l-172 0 112 -500zm2218 231l35 0c56,0 114,-29 114,-91 0,-51 -42,-62 -86,-62l-30 0 -34 153zm-60 269l-103 0 112 -500 83 0c95,0 224,5 224,130 0,121 -102,180 -216,180l-58 0 -42 190zm-445 -286l36 0c55,0 122,-16 122,-82 0,-52 -46,-52 -88,-52l-40 0 -30 135zm-55 -213l116 0c95,0 204,-1 204,118 0,86 -66,132 -150,133l0 1c28,1 45,19 52,46l49 201 -108 0 -25 -117c-12,-53 -9,-90 -65,-90l-37 0 -46 208 -103 0 112 -500zm-756 100c-23,-16 -62,-29 -117,-29 -114,0 -194,84 -194,201 0,84 56,158 146,158 43,0 78,-14 108,-31l-16 96c-37,10 -77,14 -116,14 -155,0 -229,-102 -229,-237 0,-161 112,-280 293,-280 51,0 106,6 150,24l-26 84zm-1329 -100l117 0 -95 421 186 0 -18 79 -303 0 112 -500zm1772 249c-16,71 -36,103 -53,125 -20,26 -63,55 -116,55 -33,0 -57,-10 -73,-29 -23,-29 -27,-80 -12,-147 27,-120 83,-180 168,-180 46,0 75,17 86,51 14,42 6,96 -1,125zm-68 -255c-169,0 -275,132 -303,255 -8,37 -22,131 32,198 33,41 85,62 154,62 147,0 269,-103 303,-257 17,-78 6,-147 -31,-194 -33,-42 -87,-64 -154,-64zm-2016 255c-16,71 -36,103 -53,125 -20,26 -63,55 -116,55 -33,0 -57,-10 -73,-29 -23,-29 -27,-80 -12,-147 27,-120 83,-180 168,-180 46,0 75,17 86,51 14,42 6,96 -1,125zm-68 -255c-169,0 -275,132 -303,255 -8,37 -22,131 32,198 33,41 85,62 154,62 147,0 269,-103 303,-257 17,-78 6,-147 -31,-194 -33,-42 -87,-64 -154,-64zm-416 112c-40,-25 -89,-36 -142,-36 -125,0 -203,95 -203,213 0,81 57,146 144,146 23,0 39,0 51,-5l31 -132 -109 0 17 -79 208 0 -61 273c-30,12 -87,22 -137,22 -150,0 -251,-67 -251,-222 0,-183 122,-295 307,-295 57,0 117,8 171,28l-26 87z"
   id="path3742" />
  
 </g>
</svg>