<?xml version="1.0" encoding="UTF-8"?>
<!DOCTYPE svg PUBLIC "-//W3C//DTD SVG 1.1//EN" "http://www.w3.org/Graphics/SVG/1.1/DTD/svg11.dtd">
<!-- Creator: CorelDRAW X6 -->
<svg xmlns="http://www.w3.org/2000/svg" xml:space="preserve" width="4.55555in" height="2.875in" version="1.1" style="shape-rendering:geometricPrecision; text-rendering:geometricPrecision; image-rendering:optimizeQuality; fill-rule:evenodd; clip-rule:evenodd"
viewBox="0 0 4556 2875"
 xmlns:xlink="http://www.w3.org/1999/xlink">
 <defs>
  <style type="text/css">
   <![CDATA[
    .fil0 {fill:#284785;fill-rule:nonzero}
    .fil2 {fill:#436D87;fill-rule:nonzero}
    .fil1 {fill:#C6992B;fill-rule:nonzero}
   ]]>
  </style>
 </defs>
 <g id="Layer_x0020_1">
  <metadata id="CorelCorpID_0Corel-Layer"/>
  <path class="fil0" d="M4197 2228l26 0 24 61 23 -61 26 0 0 90 -16 0 0 -69 0 0 -25 69 -13 0 -25 -69 0 0 0 69 -16 0 0 -90zm-65 15l-28 0 0 -15 72 0 0 15 -28 0 0 75 -16 0 0 -75z"/>
  <polygon class="fil1" points="3684,231 4482,231 4152,-4 "/>
  <path class="fil0" d="M4111 1118l-19 83c0,0 147,0 150,0 -1,4 -93,417 -93,417l117 0c0,0 93,-414 93,-417 2,0 150,0 150,0l19 -83 -418 0zm453 -829l0 0 -82 -58 -798 0 -1440 722 -14 62c218,-102 1344,-615 2125,-713 89,-11 156,-11 206,1l3 -14zm-3949 829c0,0 -74,330 -76,339 -4,-8 -152,-339 -152,-339l-118 0 -112 500 89 0c0,0 78,-349 80,-359 8,16 167,359 167,359l99 0 112 -500 -89 0zm245 0l-112 500 375 0 19 -83c0,0 -262,0 -266,0 1,-4 29,-129 29,-131 2,0 211,0 211,0l18 -79c0,0 -207,0 -211,0 1,-4 28,-124 28,-126 2,0 262,0 262,0l18 -81 -372 0zm3023 0c0,0 -74,330 -76,339 -4,-8 -152,-339 -152,-339l-118 0 -112 500 89 0c0,0 78,-349 80,-359 8,16 167,359 167,359l99 0 112 -500 -89 0zm-658 248c-16,71 -36,103 -53,125 -20,26 -63,55 -116,55 -33,0 -57,-10 -73,-29 -23,-29 -27,-80 -12,-147 27,-120 83,-180 168,-180 46,0 75,17 86,51 14,42 6,96 -1,125zm-68 -255c-169,0 -275,132 -303,255 -8,37 -22,131 32,198 33,41 85,62 154,62 147,0 269,-103 303,-257 17,-78 6,-147 -31,-194 -33,-42 -87,-64 -154,-64zm-737 318c-1,-8 -46,-310 -46,-310l-166 0 -112 500 91 0c0,0 89,-398 93,-414 2,16 58,414 58,414l59 0c0,0 233,-396 243,-413 -4,18 -92,413 -92,413l112 0 112 -500 -167 0c0,0 -180,303 -184,310zm-617 40c-1,-10 -32,-350 -32,-350l-108 0c0,0 -173,340 -177,350 -1,-11 -28,-350 -28,-350l-116 0 45 500 111 0c0,0 173,-343 178,-352 1,11 31,352 31,352l113 0 265 -500 -98 0c0,0 -178,341 -183,350zm-72 771l48 0c148,0 216,-85 216,-222 0,-78 -62,-120 -155,-120l-32 0 -77 342zm-8 -421l150 0c107,0 229,40 229,213 0,116 -60,286 -318,286l-172 0 112 -500zm2218 231l35 0c56,0 114,-29 114,-91 0,-51 -42,-62 -86,-62l-30 0 -34 153zm-60 269l-103 0 112 -500 83 0c95,0 224,5 224,130 0,121 -102,180 -216,180l-58 0 -42 190zm-445 -286l36 0c55,0 122,-16 122,-82 0,-52 -46,-52 -88,-52l-40 0 -30 135zm-55 -213l116 0c95,0 204,-1 204,118 0,86 -66,132 -150,133l0 1c28,1 45,19 52,46l49 201 -108 0 -25 -117c-12,-53 -9,-90 -65,-90l-37 0 -46 208 -103 0 112 -500zm-756 100c-23,-16 -62,-29 -117,-29 -114,0 -194,84 -194,201 0,84 56,158 146,158 43,0 78,-14 108,-31l-16 96c-37,10 -77,14 -116,14 -155,0 -229,-102 -229,-237 0,-161 112,-280 293,-280 51,0 106,6 150,24l-26 84zm-1329 -100l117 0 -95 421 186 0 -18 79 -303 0 112 -500zm1772 249c-16,71 -36,103 -53,125 -20,26 -63,55 -116,55 -33,0 -57,-10 -73,-29 -23,-29 -27,-80 -12,-147 27,-120 83,-180 168,-180 46,0 75,17 86,51 14,42 6,96 -1,125zm-68 -255c-169,0 -275,132 -303,255 -8,37 -22,131 32,198 33,41 85,62 154,62 147,0 269,-103 303,-257 17,-78 6,-147 -31,-194 -33,-42 -87,-64 -154,-64zm-2016 255c-16,71 -36,103 -53,125 -20,26 -63,55 -116,55 -33,0 -57,-10 -73,-29 -23,-29 -27,-80 -12,-147 27,-120 83,-180 168,-180 46,0 74,17 86,51 14,42 6,96 0,125zm-68 -255c-169,0 -275,132 -303,255 -8,37 -22,131 32,198 33,41 85,62 154,62 147,0 269,-103 303,-257 17,-78 6,-147 -31,-194 -33,-42 -87,-64 -154,-64zm-416 112c-40,-25 -89,-36 -142,-36 -125,0 -203,95 -203,213 0,81 57,146 144,146 23,0 39,0 51,-5l31 -132 -109 0 17 -79 208 0 -61 273c-30,12 -87,22 -137,22 -150,0 -251,-67 -251,-222 0,-183 122,-295 307,-295 57,0 117,8 171,28l-26 87z"/>
  <path class="fil2" d="M129 2875c-41,0 -73,-11 -95,-34 -22,-23 -33,-55 -33,-97 0,-24 4,-48 11,-70 8,-22 18,-41 33,-58 14,-17 31,-30 52,-40 20,-10 43,-15 69,-15 16,0 31,2 45,7 14,4 26,11 36,19 10,9 18,19 24,32 6,13 9,28 9,46l-40 0c0,-24 -7,-41 -21,-53 -14,-12 -32,-17 -54,-17 -21,0 -39,4 -55,13 -16,9 -28,20 -39,34 -10,14 -18,30 -23,48 -5,18 -8,36 -8,54 0,15 2,28 5,40 4,12 9,22 16,31 7,9 16,15 28,20 11,5 24,7 39,7 25,0 45,-7 60,-20 15,-13 26,-31 33,-55l40 0c-8,34 -22,60 -44,79 -22,19 -51,29 -88,29zm294 -197c-14,0 -26,3 -36,10 -10,7 -19,15 -26,25 -7,10 -12,22 -16,34 -4,12 -5,24 -5,35 0,18 5,32 15,43 10,11 25,16 45,16 13,0 25,-3 35,-10 10,-7 18,-15 25,-25 7,-10 12,-21 16,-33 4,-12 5,-23 5,-34 0,-8 -1,-16 -3,-24 -2,-8 -6,-14 -11,-20 -5,-5 -11,-10 -18,-13 -7,-3 -16,-5 -25,-5zm763 0c-10,0 -20,2 -28,5 -8,3 -15,8 -22,13 -6,6 -11,12 -16,20 -4,7 -8,15 -10,24l126 0c1,-8 0,-15 -1,-22 -2,-7 -4,-14 -8,-20 -4,-6 -9,-10 -16,-14 -7,-4 -15,-5 -25,-5zm-240 0c-10,0 -20,2 -28,5 -8,3 -15,8 -22,13 -6,6 -11,12 -16,20 -4,7 -8,15 -10,24l126 0c1,-8 0,-15 -1,-22 -2,-7 -4,-14 -8,-20 -4,-6 -9,-10 -16,-14 -7,-4 -15,-5 -25,-5zm-356 191l-36 0 40 -186 -37 0 6 -32 37 0c3,-11 5,-22 8,-32 2,-10 6,-20 10,-28 4,-8 11,-14 19,-19 8,-5 19,-7 33,-7 5,0 10,0 15,1 5,0 10,1 15,3l-6 30c-3,-1 -6,-1 -9,-1 -3,0 -5,-1 -8,-1 -9,0 -15,2 -20,5 -5,3 -8,7 -11,13 -3,5 -5,11 -6,17 -1,6 -3,13 -5,20l42 0 -6 32 -42 0 -40 186zm146 0l-36 0 40 -186 -37 0 6 -32 37 0c3,-11 5,-22 8,-32 2,-10 6,-20 10,-28 4,-8 11,-14 19,-19 8,-5 19,-7 33,-7 5,0 10,0 15,1 5,0 10,1 15,3l-6 30c-3,-1 -6,-1 -9,-1 -3,0 -5,-1 -8,-1 -9,0 -15,2 -20,5 -5,3 -8,7 -11,13 -3,5 -5,11 -6,17 -1,6 -3,13 -5,20l42 0 -6 32 -42 0 -40 186zm-340 5c-14,0 -27,-2 -38,-7 -11,-4 -21,-11 -29,-19 -8,-8 -14,-18 -18,-29 -4,-11 -6,-23 -6,-36 0,-18 3,-35 8,-51 5,-17 13,-31 24,-44 11,-13 23,-23 38,-30 15,-8 32,-11 51,-11 29,0 52,8 67,23 15,15 23,38 23,67 0,18 -3,35 -8,51 -5,17 -13,31 -24,44 -10,13 -23,23 -38,30 -15,8 -32,11 -51,11zm525 0c-18,0 -33,-3 -45,-8 -12,-5 -21,-12 -28,-21 -7,-9 -12,-18 -15,-28 -3,-10 -4,-20 -4,-30 0,-21 3,-40 9,-57 6,-17 14,-32 24,-44 10,-12 22,-22 36,-29 14,-7 28,-10 43,-10 32,0 55,8 70,25 15,17 22,40 22,71 0,6 0,11 -1,16 -1,5 -2,9 -2,12l-163 0c-1,6 -1,12 -1,19 0,8 2,16 5,22 3,7 7,12 13,16 5,4 11,8 18,10 7,2 14,4 21,4 16,0 29,-4 39,-11 10,-7 18,-17 23,-31l36 0c-3,12 -7,23 -13,32 -6,9 -14,17 -22,23 -9,6 -18,11 -29,14 -11,3 -22,5 -34,5zm240 0c-18,0 -33,-3 -45,-8 -12,-5 -21,-12 -28,-21 -7,-9 -12,-18 -15,-28 -3,-10 -4,-20 -4,-30 0,-21 3,-40 9,-57 6,-17 14,-32 24,-44 10,-12 22,-22 36,-29 14,-7 28,-10 43,-10 32,0 55,8 70,25 15,17 22,40 22,71 0,6 0,11 -1,16 -1,5 -2,9 -2,12l-163 0c-1,6 -1,12 -1,19 0,8 2,16 5,22 3,7 7,12 13,16 5,4 11,8 18,10 7,2 14,4 21,4 16,0 29,-4 39,-11 10,-7 18,-17 23,-31l36 0c-3,12 -7,23 -13,32 -6,9 -14,17 -22,23 -9,6 -18,11 -29,14 -11,3 -22,5 -34,5z"/>
 </g>
</svg>
